<?xml version="1.0" encoding="UTF-8" standalone="no"?>
<svg
    xmlns:svg="http://www.w3.org/2000/svg"
    xmlns="http://www.w3.org/2000/svg"
    version="1.1"
    viewBox="-10 -10 372 93"
    stroke-miterlimit="10"
    style="fill:none;stroke:none">

  <path
      id="path7"
      style="fill:#0068b1;fill-rule:nonzero;stroke:#0068b1;stroke-width:0.91257429;stroke-linecap:butt;stroke-linejoin:round"
      d="m 57.78346,19.125 0,0.3125 c 12.16893,2.096255 21.50945,14.512615 21.50945,29.515625 0,15.003006 -9.34052,27.419366 -21.50945,29.515626 l 0,0.3125 30.24076,0 c 16.69901,0 30.24075,-13.35526 30.24075,-29.828126 0,-16.47287 -13.54174,-29.828125 -30.24075,-29.828125 l -30.24076,0 z"/>
  <path
      id="path13"
      style="stroke:#0068b1;stroke-width:2;stroke-linecap:butt;stroke-linejoin:round"
      d="m 118.25722,48.94931 239.40157,0" />
  <path
      id="path15"
      style="fill:#ffffff;fill-rule:nonzero;stroke:#0068b1;stroke-width:1;stroke-linecap:butt;stroke-linejoin:round"
      d="m 10.5,48.93422 0,0 c 0,-15.737945 13.20584,-28.49607 29.49606,-28.49607 l 0,0 c 7.82285,0 15.32528,3.002265 20.85687,8.3463 5.53158,5.34406 8.6392,12.592135 8.6392,20.14977 l 0,0 c 0,15.737931 -13.20585,28.496041 -29.49607,28.496041 l 0,0 C 23.70584,77.430261 10.5,64.672151 10.5,48.93422 z" />
  <path
      id="path17"
      style="fill:#0068b1;fill-rule:nonzero;stroke:#0068b1;stroke-width:1;stroke-linecap:butt;stroke-linejoin:round"
      d="m 0.5,48.93422 0,0 C 0.5,33.196275 13.70584,20.43815 29.99606,20.43815 l 0,0 c 7.82284,0 15.32528,3.002265 20.85687,8.3463 5.53158,5.34406 8.6392,12.592135 8.6392,20.14977 l 0,0 c 0,15.737931 -13.20585,28.496041 -29.49607,28.496041 l 0,0 C 13.70584,77.430261 0.5,64.672151 0.5,48.93422 z" />
  <path
      id="path19"
      style="fill:#0068b1;fill-rule:nonzero;stroke:#0068b1;stroke-width:1"
      d="m 128.55409,34.72051 0,-34.22051 15.78125,0 q 5.34375,0 8.15625,0.4902 3.9375,0.676935 6.71875,2.45099 3.625,2.28759 5.42188,5.847365 1.79687,3.559775 1.79687,8.134955 0,3.898245 -1.21875,6.909465 -1.21875,3.01122 -3.125,4.983685 -1.90625,1.97246 -4.17187,3.10459 -2.26563,1.132125 -5.46875,1.71569 -3.20313,0.58357 -7.35938,0.58357 l -16.53125,0 z m 6.0625,-4.038295 9.78125,0 q 4.53125,0 7.10938,-0.630255 2.57812,-0.630255 4.10937,-1.774055 2.15625,-1.61065 3.35938,-4.330085 1.20312,-2.71943 1.20312,-6.594335 0,-5.36884 -2.35937,-8.25167 Q 155.46034,6.21898 152.08534,5.238585 149.64784,4.5383 144.24159,4.5383 l -9.625,0 0,26.143915 z m 39.46875,-25.35026 0,-4.831955 5.625,0 0,4.831955 -5.625,0 z m 0,29.388555 0,-24.790025 5.625,0 0,24.790025 -5.625,0 z m 13.15625,2.054165 5.46875,0.606915 q 0.34375,1.890765 1.90625,2.75445 2.09375,1.167135 5.71875,1.167135 3.90625,0 6.03125,-1.167135 2.125,-1.16714 2.875,-3.26799 0.4375,-1.283855 0.40625,-5.39218 -3.6875,3.24464 -9.1875,3.24464 -6.84375,0 -10.59375,-3.688155 -3.75,-3.68816 -3.75,-8.84691 0,-3.548105 1.71875,-6.54765 1.71875,-2.99955 4.98438,-4.633545 3.26562,-1.633995 7.67187,-1.633995 5.875,0 9.6875,3.548105 l 0,-2.987875 5.1875,0 0,21.42867 q 0,5.78901 -1.57812,8.20498 -1.57813,2.41598 -5,3.81655 -3.42188,1.400565 -8.42188,1.400565 -5.9375,0 -9.59375,-1.995805 -3.65625,-1.99581 -3.53125,-6.01077 z m 4.65625,-14.89269 q 0,4.87864 2.59375,7.11955 2.59375,2.240905 6.5,2.240905 3.875,0 6.5,-2.22924 2.625,-2.22923 2.625,-6.991155 0,-4.551845 -2.70312,-6.86278 -2.70313,-2.310935 -6.51563,-2.310935 -3.75,0 -6.375,2.27592 -2.625,2.27592 -2.625,6.757735 z m 32,-16.55003 0,-4.831955 5.625,0 0,4.831955 -5.625,0 z m 0,29.388555 0,-24.790025 5.625,0 0,24.790025 -5.625,0 z m 28,0 -17.75,-34.22051 6.5625,0 11.90625,24.86006 q 1.4375,2.987875 2.40625,5.602265 1.0625,-2.80113 2.46875,-5.602265 L 269.86659,0.5 l 6.1875,0 -17.9375,34.22051 -6.21875,0 z m 50.53125,-3.0579 q -3.125,1.984135 -6.01562,2.801135 -2.89063,0.816995 -6.20313,0.816995 -5.46875,0 -8.40625,-1.995805 -2.9375,-1.995815 -2.9375,-5.1004 0,-1.82074 1.10938,-3.326345 1.10937,-1.50561 2.90625,-2.41598 1.79687,-0.91037 4.04687,-1.37722 1.65625,-0.326805 5,-0.630255 6.8125,-0.606915 10.03125,-1.447255 0.0312,-0.86368 0.0312,-1.09711 0,-2.567705 -1.59375,-3.618135 -2.15625,-1.423905 -6.40625,-1.423905 -3.96875,0 -5.85937,1.03875 -1.89063,1.03876 -2.79688,3.67649 l -5.5,-0.560225 q 0.75,-2.637735 2.46875,-4.26006 1.71875,-1.622325 4.96875,-2.497675 3.25,-0.875355 7.53125,-0.875355 4.25,0 6.90625,0.74697 2.65625,0.74697 3.90625,1.87909 1.25,1.132125 1.75,2.859495 0.28125,1.073765 0.28125,3.8749 l 0,5.602265 q 0,5.859035 0.35938,7.411335 0.35937,1.552295 1.42187,2.9762 l -5.875,0 q -0.875,-1.30719 -1.125,-3.0579 z m -0.46875,-9.3838 q -3.0625,0.93371 -9.1875,1.58731 -3.46875,0.373485 -4.90625,0.840345 -1.4375,0.466855 -2.21875,1.36555 -0.78125,0.898695 -0.78125,1.995805 0,1.680685 1.70313,2.801135 1.70312,1.120455 4.98437,1.120455 3.25,0 5.78125,-1.062095 2.53125,-1.0621 3.71875,-2.90618 0.90625,-1.423905 0.90625,-4.2017 l 0,-1.540625 z m 36.0625,3.361365 5.53125,0.53688 q -0.90625,4.27173 -4.64062,6.687705 -3.73438,2.41598 -9.17188,2.41598 -6.8125,0 -10.95312,-3.326345 -4.14063,-3.32635 -4.14063,-9.535525 0,-4.014955 1.78125,-7.026175 1.78125,-3.011225 5.42188,-4.51683 3.64062,-1.50561 7.92187,-1.50561 5.40625,0 8.84375,2.042495 3.4375,2.04249 4.40625,5.80068 l -5.46875,0.630255 q -0.78125,-2.49768 -2.76562,-3.75819 -1.98438,-1.26051 -4.79688,-1.26051 -4.25,0 -6.90625,2.27592 -2.65625,2.275925 -2.65625,7.20125 0,4.995355 2.5625,7.2596 2.5625,2.264255 6.6875,2.264255 3.3125,0 5.53125,-1.517285 2.21875,-1.517275 2.8125,-4.66855 z" />
  <path
      id="path3094"
      style="fill:#0068b1;fill-rule:nonzero;stroke:#0068b1;stroke-width:0.52035046"
      d="m 343.19734,58.947981 1.55689,0 0,12.15625 -1.55689,0 0,-12.15625 m -6.32066,7.75782 c -1.25793,0 -2.12945,0.13281 -2.61457,0.39843 -0.48512,0.26563 -0.72768,0.71876 -0.72768,1.35938 0,0.51042 0.18051,0.91667 0.54153,1.21875 0.36666,0.29688 0.86306,0.44531 1.48921,0.44531 0.86304,0 1.55407,-0.28125 2.07304,-0.84375 0.5246,-0.5677 0.7869,-1.32031 0.78691,-2.25781 l 0,-0.32031 -1.54844,0 m 3.10533,-0.59375 0,4.99218 -1.55689,0 0,-1.32812 c -0.35539,0.53125 -0.79821,0.92448 -1.32844,1.17969 -0.53026,0.25 -1.17896,0.375 -1.94612,0.375 -0.97024,0 -1.74304,-0.25 -2.31843,-0.75 -0.56973,-0.50521 -0.8546,-1.17969 -0.8546,-2.02344 0,-0.98437 0.35538,-1.72656 1.06614,-2.22656 0.7164,-0.5 1.78253,-0.75 3.1984,-0.75 l 2.18305,0 0,-0.14063 c -10e-6,-0.66145 -0.23693,-1.17187 -0.71076,-1.53125 -0.46821,-0.36457 -1.12818,-0.54687 -1.97997,-0.54687 -0.54153,0 -1.06895,0.0599 -1.58227,0.17968 -0.51333,0.1198 -1.00692,0.29949 -1.48075,0.53907 l 0,-1.32813 c 0.56973,-0.20311 1.12254,-0.35416 1.65843,-0.45312 0.53588,-0.10416 1.05767,-0.15624 1.56536,-0.15625 1.37074,10e-6 2.39457,0.32813 3.07148,0.98437 0.67691,0.65626 1.01537,1.65105 1.01537,2.98438 m -10.53443,-0.28907 0,5.28125 -1.55689,0 0,-5.23437 c -1e-5,-0.82812 -0.17488,-1.44791 -0.52461,-1.85938 -0.34975,-0.41145 -0.87436,-0.61718 -1.57382,-0.61718 -0.8405,0 -1.50331,0.2474 -1.98843,0.74218 -0.48511,0.4948 -0.72768,1.16928 -0.72768,2.02344 l 0,4.94531 -1.56535,0 0,-8.75 1.56535,0 0,1.35938 c 0.3723,-0.52603 0.80947,-0.91926 1.31152,-1.17969 0.50768,-0.26041 1.09151,-0.39061 1.75151,-0.39062 1.08869,10e-6 1.91227,0.31251 2.47072,0.9375 0.55845,0.6198 0.83767,1.53386 0.83768,2.74218 m -14.79898,-2.46093 c -0.83485,0 -1.49484,0.30209 -1.97996,0.90625 -0.48512,0.59896 -0.72768,1.42188 -0.72768,2.46875 0,1.04687 0.23974,1.87239 0.71923,2.47656 0.48511,0.59896 1.14791,0.89844 1.98841,0.89844 0.82922,0 1.48638,-0.30209 1.97151,-0.90625 0.48512,-0.60417 0.72768,-1.42708 0.72769,-2.46875 -1e-5,-1.03646 -0.24257,-1.85677 -0.72769,-2.46094 -0.48513,-0.60937 -1.14229,-0.91406 -1.97151,-0.91406 m 0,-1.21875 c 1.35383,10e-6 2.41714,0.40626 3.18995,1.21875 0.7728,0.8125 1.1592,1.9375 1.15921,3.375 -1e-5,1.43229 -0.38641,2.55729 -1.15921,3.375 -0.77281,0.8125 -1.83612,1.21875 -3.18995,1.21875 -1.35946,0 -2.4256,-0.40625 -3.19839,-1.21875 -0.76718,-0.81771 -1.15076,-1.94271 -1.15076,-3.375 0,-1.4375 0.38358,-2.5625 1.15076,-3.375 0.77279,-0.81249 1.83893,-1.21874 3.19839,-1.21875 m -6.66758,0.46875 0,1.35937 c -0.43999,-0.20832 -0.89691,-0.36457 -1.37073,-0.46875 -0.47385,-0.10416 -0.9646,-0.15624 -1.47229,-0.15625 -0.7728,1e-5 -1.35382,0.10938 -1.74304,0.32813 -0.38359,0.21875 -0.57538,0.54688 -0.57538,0.98437 0,0.33334 0.1382,0.59636 0.41461,0.78906 0.2764,0.18751 0.83204,0.3672 1.6669,0.53907 l 0.53307,0.10937 c 1.10562,0.21876 1.8897,0.52865 2.35226,0.92969 0.46819,0.39584 0.70229,0.95052 0.70229,1.66406 0,0.8125 -0.34974,1.45573 -1.04921,1.92969 -0.69384,0.47396 -1.64997,0.71094 -2.86841,0.71094 -0.50768,0 -1.03793,-0.0468 -1.59074,-0.14063 -0.54717,-0.0885 -1.12537,-0.22396 -1.73458,-0.40625 l 0,-1.48437 c 0.57537,0.27604 1.14228,0.48437 1.70073,0.625 0.55845,0.13541 1.11126,0.20312 1.65844,0.20312 0.73331,0 1.29741,-0.11458 1.69228,-0.34375 0.39486,-0.23437 0.59228,-0.5625 0.59229,-0.98437 -10e-6,-0.39063 -0.14385,-0.6901 -0.43153,-0.89844 -0.28205,-0.20833 -0.90537,-0.40885 -1.86996,-0.60156 l -0.54153,-0.11719 c -0.96461,-0.1875 -1.66126,-0.47395 -2.08997,-0.85938 -0.4287,-0.39062 -0.64306,-0.92447 -0.64306,-1.60156 0,-0.82291 0.31589,-1.45832 0.94766,-1.90625 0.6318,-0.44791 1.5287,-0.67186 2.69073,-0.67187 0.57537,10e-6 1.1169,0.0391 1.62458,0.11718 0.50768,0.0781 0.97588,0.19533 1.40459,0.35157 m -7.69139,1.08593 c -0.17488,-0.0937 -0.36667,-0.16145 -0.57538,-0.20312 -0.20307,-0.0469 -0.42871,-0.0703 -0.67691,-0.0703 -0.87999,0 -1.5569,0.26563 -2.03073,0.79687 -0.4682,0.52605 -0.70229,1.28386 -0.70229,2.27344 l 0,4.60937 -1.56536,0 0,-8.75 1.56536,0 0,1.35938 c 0.32717,-0.53124 0.75305,-0.92447 1.27766,-1.17969 0.52461,-0.26041 1.16203,-0.39061 1.91228,-0.39062 0.10716,1e-5 0.22562,0.008 0.35537,0.0235 0.12974,0.0104 0.27359,0.0286 0.43154,0.0547 l 0.008,1.47656 m -8.04677,2.67186 0,0.70312 -7.15834,0 c 0.0677,0.98959 0.38922,1.7448 0.9646,2.26563 0.58101,0.51563 1.38767,0.77344 2.41996,0.77344 0.59793,0 1.17612,-0.0677 1.73459,-0.20313 0.56408,-0.13541 1.12253,-0.33854 1.67535,-0.60937 l 0,1.35937 c -0.55846,0.21875 -1.13102,0.38542 -1.71767,0.5 -0.58665,0.11458 -1.18177,0.17188 -1.78535,0.17188 -1.51176,0 -2.71046,-0.40625 -3.59609,-1.21875 -0.87999,-0.8125 -1.31998,-1.91146 -1.31998,-3.29688 0,-1.43228 0.41743,-2.5677 1.25229,-3.40625 0.84049,-0.84374 1.9715,-1.26561 3.39302,-1.26562 1.27484,10e-6 2.28174,0.38021 3.02071,1.14062 0.7446,0.75522 1.1169,1.78386 1.11691,3.08594 m -1.5569,-0.42188 c -0.0113,-0.78645 -0.25103,-1.41405 -0.71921,-1.88281 -0.46257,-0.46874 -1.07743,-0.70312 -1.84459,-0.70312 -0.86871,0 -1.56535,0.22657 -2.08996,0.67968 -0.51897,0.45314 -0.81794,1.09116 -0.89691,1.91407 l 5.55067,-0.008 m -14.62129,-5.21095 0,4.38281 2.1492,0 c 0.79537,1e-5 1.41023,-0.1901 1.84458,-0.57031 0.43435,-0.3802 0.65154,-0.92187 0.65154,-1.625 0,-0.69791 -0.21719,-1.23697 -0.65154,-1.61719 -0.43435,-0.3802 -1.04921,-0.5703 -1.84458,-0.57031 l -2.1492,0 m -1.7092,-1.29688 3.8584,0 c 1.41588,10e-6 2.48482,0.29689 3.20687,0.89063 0.72767,0.58855 1.09151,1.45313 1.09152,2.59375 -10e-6,1.15105 -0.36385,2.02084 -1.09152,2.60937 -0.72205,0.58855 -1.79099,0.88282 -3.20687,0.88281 l -2.1492,0 0,4.6875 -1.7092,0 0,-11.66406 m -10.39058,-0.49219 1.5569,0 0,12.15625 -1.5569,0 0,-12.15625 m -6.32066,7.75782 c -1.25794,0 -2.12945,0.13281 -2.61458,0.39843 -0.48511,0.26563 -0.72766,0.71876 -0.72766,1.35938 0,0.51042 0.1805,0.91667 0.54152,1.21875 0.36667,0.29688 0.86306,0.44531 1.48921,0.44531 0.86305,0 1.55407,-0.28125 2.07305,-0.84375 0.52459,-0.5677 0.78689,-1.32031 0.78689,-2.25781 l 0,-0.32031 -1.54843,0 m 3.10533,-0.59375 0,4.99218 -1.5569,0 0,-1.32812 c -0.35539,0.53125 -0.7982,0.92448 -1.32843,1.17969 -0.53025,0.25 -1.17897,0.375 -1.94613,0.375 -0.97023,0 -1.74304,-0.25 -2.31841,-0.75 -0.56975,-0.50521 -0.8546,-1.17969 -0.8546,-2.02344 0,-0.98437 0.35537,-1.72656 1.06613,-2.22656 0.7164,-0.5 1.78253,-0.75 3.1984,-0.75 l 2.18304,0 0,-0.14063 c 0,-0.66145 -0.23692,-1.17187 -0.71075,-1.53125 -0.46821,-0.36457 -1.12819,-0.54687 -1.97997,-0.54687 -0.54152,0 -1.06895,0.0599 -1.58227,0.17968 -0.51333,0.1198 -1.00691,0.29949 -1.48075,0.53907 l 0,-1.32813 c 0.56973,-0.20311 1.12254,-0.35416 1.65843,-0.45312 0.53588,-0.10416 1.05767,-0.15624 1.56536,-0.15625 1.37075,10e-6 2.39456,0.32813 3.07148,0.98437 0.67691,0.65626 1.01536,1.65105 1.01537,2.98438 m -10.13675,-3.42188 0,1.34375 c -0.43999,-0.22395 -0.88281,-0.39062 -1.32843,-0.5 -0.44,-0.11457 -0.88564,-0.17187 -1.33691,-0.17187 -1.00972,0 -1.79381,0.29688 -2.35225,0.89062 -0.55847,0.58855 -0.83769,1.41667 -0.83769,2.48438 0,1.06771 0.27922,1.89844 0.83769,2.49218 0.55844,0.58855 1.34253,0.88282 2.35225,0.88282 0.45127,0 0.89691,-0.0547 1.33691,-0.16407 0.44562,-0.11458 0.88844,-0.28385 1.32843,-0.50781 l 0,1.32813 c -0.43435,0.1875 -0.88563,0.32812 -1.35381,0.42187 -0.46257,0.0937 -0.95615,0.14063 -1.48075,0.14063 -1.42716,0 -2.56098,-0.41407 -3.40148,-1.24219 -0.84051,-0.82812 -1.26075,-1.94531 -1.26075,-3.35156 0,-1.42708 0.42307,-2.54948 1.26921,-3.36719 0.85178,-0.8177 2.01663,-1.22655 3.49456,-1.22656 0.47947,10e-6 0.94767,0.0469 1.40459,0.14062 0.45691,0.0885 0.89971,0.22397 1.32843,0.40625 m -11.62595,-0.33594 1.5569,0 0,8.75 -1.5569,0 0,-8.75 m 0,-3.40625 1.5569,0 0,1.82032 -1.5569,0 0,-1.82032 m -5.26298,0.92188 0,2.48437 3.20687,0 0,1.11719 -3.20687,0 0,4.75 c 0,0.71355 0.10436,1.17188 0.31308,1.375 0.21434,0.20313 0.64588,0.30469 1.29458,0.30469 l 1.59921,0 0,1.20312 -1.59921,0 c -1.20151,0 -2.03074,-0.20572 -2.48765,-0.61718 -0.45691,-0.41667 -0.68536,-1.17188 -0.68536,-2.26563 l 0,-4.75 -1.1423,0 0,-1.11719 1.1423,0 0,-2.48437 1.56535,0 m -4.26454,2.82031 0,1.34375 c -0.44,-0.22395 -0.88281,-0.39062 -1.32844,-0.5 -0.44,-0.11457 -0.88563,-0.17187 -1.33689,-0.17187 -1.00974,0 -1.79383,0.29688 -2.35228,0.89062 -0.55845,0.58855 -0.83768,1.41667 -0.83768,2.48438 0,1.06771 0.27923,1.89844 0.83768,2.49218 0.55845,0.58855 1.34254,0.88282 2.35228,0.88282 0.45126,0 0.89689,-0.0547 1.33689,-0.16407 0.44563,-0.11458 0.88844,-0.28385 1.32844,-0.50781 l 0,1.32813 c -0.43436,0.1875 -0.88564,0.32812 -1.35383,0.42187 -0.46256,0.0937 -0.95613,0.14063 -1.48073,0.14063 -1.42716,0 -2.56099,-0.41407 -3.40149,-1.24219 -0.84049,-0.82812 -1.26075,-1.94531 -1.26075,-3.35156 0,-1.42708 0.42308,-2.54948 1.26921,-3.36719 0.85179,-0.8177 2.01663,-1.22655 3.49456,-1.22656 0.47947,10e-6 0.94767,0.0469 1.40459,0.14062 0.45691,0.0885 0.89972,0.22397 1.32844,0.40625 m -13.14054,4.01563 c -1.25793,0 -2.12945,0.13281 -2.61458,0.39843 -0.48511,0.26563 -0.72767,0.71876 -0.72767,1.35938 0,0.51042 0.1805,0.91667 0.54153,1.21875 0.36666,0.29688 0.86305,0.44531 1.4892,0.44531 0.86306,0 1.55408,-0.28125 2.07305,-0.84375 0.5246,-0.5677 0.78689,-1.32031 0.7869,-2.25781 l 0,-0.32031 -1.54843,0 m 3.10532,-0.59375 0,4.99218 -1.55689,0 0,-1.32812 c -0.35539,0.53125 -0.7982,0.92448 -1.32844,1.17969 -0.53025,0.25 -1.17895,0.375 -1.94612,0.375 -0.97024,0 -1.74304,-0.25 -2.31842,-0.75 -0.56973,-0.50521 -0.85459,-1.17969 -0.85459,-2.02344 0,-0.98437 0.35536,-1.72656 1.06613,-2.22656 0.7164,-0.5 1.78252,-0.75 3.1984,-0.75 l 2.18304,0 0,-0.14063 c -1e-5,-0.66145 -0.23693,-1.17187 -0.71075,-1.53125 -0.46821,-0.36457 -1.1282,-0.54687 -1.97997,-0.54687 -0.54153,0 -1.06896,0.0599 -1.58228,0.17968 -0.51332,0.1198 -1.00691,0.29949 -1.48075,0.53907 l 0,-1.32813 c 0.56973,-0.20311 1.12255,-0.35416 1.65843,-0.45312 0.53589,-0.10416 1.05768,-0.15624 1.56536,-0.15625 1.37075,10e-6 2.39457,0.32813 3.07149,0.98437 0.6769,0.65626 1.01536,1.65105 1.01536,2.98438 m -9.06214,-2.41407 c -0.17487,-0.0937 -0.36667,-0.16145 -0.57537,-0.20312 -0.20308,-0.0469 -0.42873,-0.0703 -0.67692,-0.0703 -0.87999,0 -1.5569,0.26563 -2.03073,0.79687 -0.4682,0.52605 -0.7023,1.28386 -0.7023,2.27344 l 0,4.60937 -1.56535,0 0,-8.75 1.56535,0 0,1.35938 c 0.32718,-0.53124 0.75306,-0.92447 1.27767,-1.17969 0.5246,-0.26041 1.16203,-0.39061 1.91228,-0.39062 0.10716,1e-5 0.22563,0.008 0.35538,0.0235 0.12973,0.0104 0.27358,0.0286 0.43152,0.0547 l 0.008,1.47656 m -13.86821,-2.96095 0,4.38281 2.14919,0 c 0.79537,1e-5 1.41023,-0.1901 1.84459,-0.57031 0.43434,-0.3802 0.65152,-0.92187 0.65152,-1.625 0,-0.69791 -0.21718,-1.23697 -0.65152,-1.61719 -0.43436,-0.3802 -1.04922,-0.5703 -1.84459,-0.57031 l -2.14919,0 m -1.7092,-1.29688 3.85839,0 c 1.41587,10e-6 2.48483,0.29689 3.20687,0.89063 0.72767,0.58855 1.09152,1.45313 1.09152,2.59375 0,1.15105 -0.36385,2.02084 -1.09152,2.60937 -0.72204,0.58855 -1.791,0.88282 -3.20687,0.88281 l -2.14919,0 0,4.6875 -1.7092,0 0,-11.66406 m -8.13985,6.92969 0,0.70312 -7.15834,0 c 0.0677,0.98959 0.38922,1.7448 0.9646,2.26563 0.58101,0.51563 1.38766,0.77344 2.41996,0.77344 0.59793,0 1.17612,-0.0677 1.73458,-0.20313 0.56409,-0.13541 1.12254,-0.33854 1.67535,-0.60937 l 0,1.35937 c -0.55846,0.21875 -1.13101,0.38542 -1.71766,0.5 -0.58666,0.11458 -1.18178,0.17188 -1.78535,0.17188 -1.51177,0 -2.71047,-0.40625 -3.59609,-1.21875 -0.87999,-0.8125 -1.31998,-1.91146 -1.31998,-3.29688 0,-1.43228 0.41742,-2.5677 1.25229,-3.40625 0.84049,-0.84374 1.97149,-1.26561 3.39301,-1.26562 1.27485,10e-6 2.28175,0.38021 3.02072,1.14062 0.7446,0.75522 1.1169,1.78386 1.11691,3.08594 m -1.5569,-0.42188 c -0.0113,-0.78645 -0.25103,-1.41405 -0.71922,-1.88281 -0.46256,-0.46874 -1.07742,-0.70312 -1.84458,-0.70312 -0.86871,0 -1.56536,0.22657 -2.08997,0.67968 -0.51896,0.45314 -0.81793,1.09116 -0.89691,1.91407 l 5.55068,-0.008 m -9.54445,-3.33595 0,1.35937 c -0.44,-0.20832 -0.89691,-0.36457 -1.37075,-0.46875 -0.47384,-0.10416 -0.96459,-0.15624 -1.47228,-0.15625 -0.77281,10e-6 -1.35382,0.10938 -1.74305,0.32813 -0.38358,0.21875 -0.57537,0.54688 -0.57537,0.98437 0,0.33334 0.1382,0.59636 0.41461,0.78906 0.27641,0.18751 0.83203,0.3672 1.66689,0.53907 l 0.53307,0.10937 c 1.10562,0.21876 1.88971,0.52865 2.35227,0.92969 0.46819,0.39584 0.70228,0.95052 0.70229,1.66406 -1e-5,0.8125 -0.34974,1.45573 -1.04921,1.92969 -0.69384,0.47396 -1.64997,0.71094 -2.86841,0.71094 -0.50769,0 -1.03793,-0.0468 -1.59074,-0.14063 -0.54718,-0.0885 -1.12537,-0.22396 -1.73459,-0.40625 l 0,-1.48437 c 0.57538,0.27604 1.14229,0.48437 1.70074,0.625 0.55845,0.13541 1.11126,0.20312 1.65844,0.20312 0.73332,0 1.2974,-0.11458 1.69227,-0.34375 0.39486,-0.23437 0.5923,-0.5625 0.5923,-0.98437 0,-0.39063 -0.14385,-0.6901 -0.43154,-0.89844 -0.28204,-0.20833 -0.90537,-0.40885 -1.86996,-0.60156 l -0.54153,-0.11719 c -0.9646,-0.1875 -1.66125,-0.47395 -2.08997,-0.85938 -0.4287,-0.39062 -0.64306,-0.92447 -0.64306,-1.60156 0,-0.82291 0.3159,-1.45832 0.94768,-1.90625 0.63178,-0.44791 1.52869,-0.67186 2.69072,-0.67187 0.57538,1e-5 1.1169,0.0391 1.62459,0.11718 0.50768,0.0781 0.97587,0.19533 1.40459,0.35157 m -10.84751,-0.25782 1.5569,0 0,8.75 -1.5569,0 0,-8.75 m 0,-3.40625 1.5569,0 0,1.82032 -1.5569,0 0,-1.82032 m -2.72456,3.74219 0,1.34375 c -0.44,-0.22395 -0.88282,-0.39062 -1.32844,-0.5 -0.44,-0.11457 -0.88564,-0.17187 -1.3369,-0.17187 -1.00973,0 -1.79382,0.29688 -2.35226,0.89062 -0.55847,0.58855 -0.83769,1.41667 -0.83769,2.48438 0,1.06771 0.27922,1.89844 0.83769,2.49218 0.55844,0.58855 1.34253,0.88282 2.35226,0.88282 0.45126,0 0.8969,-0.0547 1.3369,-0.16407 0.44562,-0.11458 0.88844,-0.28385 1.32844,-0.50781 l 0,1.32813 c -0.43436,0.1875 -0.88563,0.32812 -1.35382,0.42187 -0.46257,0.0937 -0.95615,0.14063 -1.48075,0.14063 -1.42716,0 -2.56098,-0.41407 -3.40148,-1.24219 -0.8405,-0.82812 -1.26075,-1.94531 -1.26075,-3.35156 0,-1.42708 0.42308,-2.54948 1.26921,-3.36719 0.85178,-0.8177 2.01663,-1.22655 3.49456,-1.22656 0.47948,1e-5 0.94767,0.0469 1.40459,0.14062 0.45691,0.0885 0.89972,0.22397 1.32844,0.40625 m -9.37523,3.67969 0,0.70312 -7.15833,0 c 0.0677,0.98959 0.38922,1.7448 0.9646,2.26563 0.58101,0.51563 1.38767,0.77344 2.41996,0.77344 0.59793,0 1.17612,-0.0677 1.73458,-0.20313 0.56409,-0.13541 1.12254,-0.33854 1.67535,-0.60937 l 0,1.35937 c -0.55845,0.21875 -1.13101,0.38542 -1.71766,0.5 -0.58666,0.11458 -1.18178,0.17188 -1.78535,0.17188 -1.51177,0 -2.71046,-0.40625 -3.59609,-1.21875 -0.87999,-0.8125 -1.31998,-1.91146 -1.31998,-3.29688 0,-1.43228 0.41743,-2.5677 1.25229,-3.40625 0.8405,-0.84374 1.9715,-1.26561 3.39302,-1.26562 1.27484,1e-5 2.28174,0.38021 3.02071,1.14062 0.7446,0.75522 1.1169,1.78386 1.1169,3.08594 m -1.55689,-0.42188 c -0.0113,-0.78645 -0.25103,-1.41405 -0.71922,-1.88281 -0.46255,-0.46874 -1.07742,-0.70312 -1.84458,-0.70312 -0.86871,0 -1.56536,0.22657 -2.08997,0.67968 -0.51896,0.45314 -0.81793,1.09116 -0.8969,1.91407 l 5.55067,-0.008 m -7.82679,-2.25002 c -0.17487,-0.0937 -0.36666,-0.16145 -0.57537,-0.20312 -0.20308,-0.0469 -0.42871,-0.0703 -0.67691,-0.0703 -0.87999,0 -1.5569,0.26563 -2.03073,0.79687 -0.46821,0.52605 -0.7023,1.28386 -0.7023,2.27344 l 0,4.60937 -1.56536,0 0,-8.75 1.56536,0 0,1.35938 c 0.32717,-0.53124 0.75305,-0.92447 1.27766,-1.17969 0.52461,-0.26041 1.16204,-0.39061 1.91229,-0.39062 0.10717,1e-5 0.22562,0.008 0.35538,0.0235 0.12973,0.0104 0.27357,0.0286 0.43152,0.0547 l 0.008,1.47656 m -13.8682,-2.96095 0,4.38281 2.14919,0 c 0.79537,10e-6 1.41023,-0.1901 1.84458,-0.57031 0.43435,-0.3802 0.65153,-0.92187 0.65154,-1.625 -1e-5,-0.69791 -0.21719,-1.23697 -0.65154,-1.61719 -0.43435,-0.3802 -1.04921,-0.5703 -1.84458,-0.57031 l -2.14919,0 m -1.7092,-1.29688 3.85839,0 c 1.41587,10e-6 2.48482,0.29689 3.20687,0.89063 0.72767,0.58855 1.09152,1.45313 1.09152,2.59375 0,1.15105 -0.36385,2.02084 -1.09152,2.60937 -0.72205,0.58855 -1.791,0.88282 -3.20687,0.88281 l -2.14919,0 0,4.6875 -1.7092,0 0,-11.66406" />
</svg>
